<svg xmlns="http://www.w3.org/2000/svg" viewBox="0 0 32 32"><path fill="#00254a" d="M16,30a1,1,0,0,1-.53-.15l-8-5A1,1,0,0,1,7,24.14l-3-21a1,1,0,0,1,.23-.8A1,1,0,0,1,5,2H27a1,1,0,0,1,.76.34,1,1,0,0,1,.23.8l-3,21a1,1,0,0,1-.46.71l-8,5A1,1,0,0,1,16,30Zm.45-6.11,4-2a1,1,0,0,0,.54-.77l1-8a1,1,0,0,0-.24-.78A1,1,0,0,0,21,12H11.85l-.67-4H22a1,1,0,0,0,0-2H10A1,1,0,0,0,9,7.16l1,6A1,1,0,0,0,11,14h8.87l-.8,6.34L16,21.88l-3-1.5V18a1,1,0,0,0-2,0v3a1,1,0,0,0,.55.89l4,2a1,1,0,0,0,.9,0Z" data-name="Layer 19"/></svg>